<?xml version="1.0" encoding="UTF-8"?>
<svg xmlns="http://www.w3.org/2000/svg" xmlns:xlink="http://www.w3.org/1999/xlink" width="16pt" height="16pt" viewBox="0 0 16 16" version="1.1">
<g id="surface1">
<path style=" stroke:none;fill-rule:evenodd;fill:rgb(80%,24.313725%,26.666667%);fill-opacity:1;" d="M 10.265625 5.265625 L 9.734375 4.734375 L 7.5 6.96875 L 5.265625 4.734375 L 4.734375 5.265625 L 6.96875 7.5 L 4.734375 9.734375 L 5.265625 10.265625 L 7.5 8.03125 L 9.71875 10.25 L 10.25 9.71875 L 8.03125 7.5 Z M 7.5 15.976562 C 6.878906 15.613281 6.265625 15.222656 5.65625 14.8125 C 5.046875 14.402344 4.464844 13.957031 3.90625 13.476562 C 3.347656 12.996094 2.832031 12.488281 2.359375 11.945312 C 1.886719 11.402344 1.472656 10.824219 1.117188 10.203125 C 0.761719 9.582031 0.488281 8.925781 0.296875 8.226562 C 0.105469 7.527344 0.00390625 6.785156 0 6 L 0 2 C 0.433594 2 0.851562 1.984375 1.257812 1.953125 C 1.664062 1.921875 2.058594 1.863281 2.445312 1.78125 C 2.832031 1.699219 3.210938 1.582031 3.585938 1.429688 C 3.960938 1.277344 4.335938 1.082031 4.710938 0.84375 C 5.152344 0.558594 5.597656 0.347656 6.039062 0.210938 C 6.480469 0.0742188 6.96875 0.00390625 7.5 0 C 7.765625 0 8.019531 0.015625 8.257812 0.046875 C 8.496094 0.078125 8.730469 0.128906 8.953125 0.203125 C 9.175781 0.277344 9.402344 0.363281 9.625 0.46875 C 9.847656 0.574219 10.070312 0.699219 10.289062 0.84375 C 10.664062 1.082031 11.039062 1.277344 11.414062 1.429688 C 11.789062 1.582031 12.167969 1.699219 12.554688 1.78125 C 12.941406 1.863281 13.335938 1.921875 13.742188 1.953125 C 14.148438 1.984375 14.566406 2 15 2 L 15 6 C 15 6.785156 14.902344 7.527344 14.703125 8.226562 C 14.503906 8.925781 14.230469 9.582031 13.882812 10.203125 C 13.535156 10.824219 13.121094 11.402344 12.648438 11.945312 C 12.175781 12.488281 11.660156 12.996094 11.101562 13.46875 C 10.542969 13.941406 9.960938 14.386719 9.351562 14.804688 C 8.742188 15.222656 8.125 15.613281 7.5 15.976562 Z M 1 2.984375 L 1 6 C 1 6.660156 1.085938 7.296875 1.257812 7.90625 C 1.429688 8.515625 1.667969 9.09375 1.976562 9.640625 C 2.285156 10.1875 2.644531 10.707031 3.054688 11.203125 C 3.464844 11.699219 3.914062 12.160156 4.398438 12.59375 C 4.882812 13.027344 5.386719 13.429688 5.90625 13.804688 C 6.425781 14.179688 6.957031 14.519531 7.5 14.820312 C 8.03125 14.511719 8.558594 14.175781 9.085938 13.804688 C 9.613281 13.433594 10.117188 13.035156 10.601562 12.601562 C 11.085938 12.167969 11.535156 11.707031 11.945312 11.210938 C 12.355469 10.714844 12.714844 10.195312 13.023438 9.648438 C 13.332031 9.101562 13.566406 8.519531 13.734375 7.90625 C 13.902344 7.292969 13.988281 6.65625 14 6 L 14 2.984375 C 13.222656 2.941406 12.480469 2.816406 11.773438 2.609375 C 11.066406 2.402344 10.378906 2.085938 9.71875 1.664062 C 9.363281 1.433594 9.011719 1.269531 8.664062 1.164062 C 8.316406 1.058594 7.925781 1.003906 7.5 1 C 7.078125 1 6.691406 1.050781 6.34375 1.15625 C 5.996094 1.261719 5.640625 1.429688 5.28125 1.664062 C 4.625 2.085938 3.941406 2.402344 3.234375 2.609375 C 2.527344 2.816406 1.78125 2.941406 1 2.984375 Z M 1 2.984375 "/>
</g>
</svg>
