<?xml version="1.0" encoding="UTF-8"?>
<svg xmlns="http://www.w3.org/2000/svg" xmlns:xlink="http://www.w3.org/1999/xlink" width="14pt" height="14pt" viewBox="0 0 14 14" version="1.1">
<g id="surface1">
<path style=" stroke:none;fill-rule:evenodd;fill:rgb(80%,24.313725%,26.666667%);fill-opacity:1;" d="M 8.984375 4.609375 L 8.515625 4.140625 L 6.5625 6.097656 L 4.609375 4.140625 L 4.140625 4.609375 L 6.097656 6.5625 L 4.140625 8.515625 L 4.609375 8.984375 L 6.5625 7.027344 L 8.503906 8.96875 L 8.96875 8.503906 L 7.027344 6.5625 Z M 6.5625 13.980469 C 6.019531 13.660156 5.484375 13.320312 4.949219 12.960938 C 4.414062 12.601562 3.90625 12.210938 3.417969 11.792969 C 2.929688 11.371094 2.476562 10.925781 2.0625 10.453125 C 1.652344 9.976562 1.289062 9.472656 0.976562 8.925781 C 0.667969 8.382812 0.425781 7.808594 0.261719 7.199219 C 0.09375 6.585938 0.00390625 5.9375 0 5.25 L 0 1.75 C 0.378906 1.75 0.746094 1.734375 1.101562 1.707031 C 1.457031 1.679688 1.800781 1.628906 2.140625 1.558594 C 2.476562 1.488281 2.808594 1.382812 3.136719 1.25 C 3.464844 1.117188 3.792969 0.945312 4.121094 0.738281 C 4.507812 0.488281 4.898438 0.304688 5.285156 0.183594 C 5.671875 0.0664062 6.097656 0.00390625 6.5625 0 C 6.796875 0 7.015625 0.015625 7.226562 0.0429688 C 7.433594 0.0703125 7.640625 0.113281 7.835938 0.179688 C 8.027344 0.242188 8.226562 0.316406 8.421875 0.410156 C 8.617188 0.503906 8.8125 0.613281 9.003906 0.738281 C 9.332031 0.945312 9.660156 1.117188 9.988281 1.25 C 10.316406 1.382812 10.648438 1.488281 10.984375 1.558594 C 11.324219 1.628906 11.667969 1.679688 12.023438 1.707031 C 12.378906 1.734375 12.746094 1.75 13.125 1.75 L 13.125 5.25 C 13.125 5.9375 13.039062 6.585938 12.863281 7.199219 C 12.691406 7.808594 12.453125 8.382812 12.148438 8.925781 C 11.84375 9.472656 11.480469 9.976562 11.066406 10.453125 C 10.652344 10.925781 10.203125 11.371094 9.714844 11.785156 C 9.226562 12.199219 8.714844 12.589844 8.183594 12.953125 C 7.648438 13.320312 7.109375 13.660156 6.5625 13.980469 Z M 0.875 2.609375 L 0.875 5.25 C 0.875 5.828125 0.949219 6.382812 1.101562 6.917969 C 1.25 7.453125 1.460938 7.957031 1.730469 8.433594 C 2 8.914062 2.3125 9.367188 2.671875 9.800781 C 3.03125 10.238281 3.425781 10.640625 3.847656 11.019531 C 4.273438 11.398438 4.714844 11.75 5.167969 12.078125 C 5.621094 12.40625 6.085938 12.703125 6.5625 12.96875 C 7.027344 12.699219 7.488281 12.402344 7.949219 12.078125 C 8.410156 11.753906 8.851562 11.40625 9.277344 11.027344 C 9.699219 10.648438 10.09375 10.242188 10.453125 9.808594 C 10.8125 9.375 11.125 8.921875 11.394531 8.441406 C 11.664062 7.964844 11.871094 7.453125 12.015625 6.917969 C 12.164062 6.382812 12.238281 5.824219 12.25 5.25 L 12.25 2.609375 C 11.570312 2.574219 10.921875 2.464844 10.300781 2.28125 C 9.683594 2.101562 9.082031 1.824219 8.503906 1.457031 C 8.191406 1.253906 7.886719 1.109375 7.582031 1.019531 C 7.277344 0.925781 6.933594 0.878906 6.5625 0.875 C 6.195312 0.875 5.855469 0.917969 5.550781 1.011719 C 5.246094 1.105469 4.9375 1.25 4.621094 1.457031 C 4.046875 1.824219 3.449219 2.101562 2.828125 2.28125 C 2.210938 2.464844 1.558594 2.574219 0.875 2.609375 Z M 0.875 2.609375 "/>
</g>
</svg>
